<svg width="72" height="87" viewBox="0 0 72 87" fill="none" xmlns="http://www.w3.org/2000/svg">
<path d="M19.455 0.40824C20.2114 0.839535 20.7395 1.39448 21.2645 2.05343C21.3606 2.17117 21.4568 2.2889 21.5559 2.41021C23.5838 4.92856 25.359 7.59251 27.0069 10.3388C27.232 10.7125 27.4616 11.0834 27.6926 11.454C32.1375 18.8237 34.2264 27.296 34.1922 35.6998C34.1915 35.9971 34.1915 35.9971 34.1908 36.3003C34.1805 39.146 34.0912 41.9092 33.5029 44.7086C33.466 44.9042 33.4291 45.0998 33.391 45.3013C31.641 54.5437 27.3455 63.1676 22.0578 71.0922C22.6442 71.9344 23.2726 72.7316 23.9436 73.5172C24.1477 73.7577 24.3517 73.9981 24.5557 74.2386C24.6593 74.3604 24.7629 74.4822 24.8696 74.6077C25.3561 75.1805 25.8398 75.7554 26.3237 76.3301C26.5144 76.5565 26.7052 76.7828 26.896 77.0091C28.0405 78.3671 29.185 79.7251 30.3295 81.0831C30.424 81.1952 30.5186 81.3074 30.616 81.423C30.8056 81.648 30.9952 81.873 31.1847 82.0982C31.6783 82.6844 32.1731 83.2696 32.6697 83.8536C32.7722 83.9744 32.8746 84.0952 32.9802 84.2196C33.1746 84.4488 33.3694 84.6776 33.5647 84.9062C34.1419 85.5874 34.6482 86.2736 35.1676 87C23.5623 87 11.957 87 0 87C0.580325 86.0532 1.01716 85.3912 1.75578 84.5993C2.61601 83.6618 3.42875 82.6976 4.22688 81.7136C5.13369 80.5975 6.05847 79.4988 7.01012 78.4156C8.07362 77.2041 9.1114 75.9794 10.1239 74.7304C10.4445 74.3418 10.7735 73.96 11.1029 73.5778C11.3384 73.299 11.5739 73.0201 11.8092 72.7412C11.9238 72.611 12.0384 72.4809 12.1564 72.3468C12.3113 72.1609 12.3113 72.1609 12.4693 71.9713C12.6096 71.8079 12.6096 71.8079 12.7528 71.6413C12.952 71.2722 12.952 71.2722 12.7589 70.8207C12.4811 70.3081 12.1887 69.8125 11.8735 69.319C11.753 69.1291 11.6325 68.9391 11.5083 68.7435C11.3802 68.5423 11.252 68.3411 11.1199 68.1338C5.15583 58.6608 1.10377 48.2294 0.83237 37.1427C0.826469 36.9376 0.820567 36.7326 0.814487 36.5213C0.805762 35.8868 0.816204 35.2551 0.83237 34.6207C0.834985 34.476 0.837601 34.3313 0.840295 34.1821C1.09826 21.7112 6.65774 10.0255 15.3988 0.671198C16.6617 -0.150193 18.0852 -0.193123 19.455 0.40824ZM17.2717 8.62509C12.6003 14.6205 7.52712 24.0595 7.90751 31.7108C10.6445 32.3307 13.2412 32.243 15.854 31.1773C16.8227 30.8183 17.7315 30.8813 18.7283 31.1288C19.6554 31.6159 20.0414 32.1078 20.3931 33.0202C20.6587 34.0033 20.6284 34.8524 20.185 35.7847C19.0243 37.4239 16.687 37.7556 14.7437 38.1945C13.1494 38.4958 11.6227 38.524 10.0014 38.5128C9.63911 38.5115 9.63911 38.5115 9.26946 38.5101C8.67674 38.5079 8.08404 38.5047 7.49133 38.5007C7.88593 47.2314 11.4766 55.4592 15.724 63.1262C15.8282 63.3147 15.9323 63.5031 16.0396 63.6973C16.1375 63.8707 16.2353 64.0441 16.3361 64.2227C16.4215 64.3745 16.507 64.5263 16.595 64.6827C16.8508 65.0711 17.1196 65.3544 17.4798 65.6603C20.2519 61.0056 22.7613 56.3689 24.5549 51.3045C24.6155 51.1369 24.676 50.9693 24.7384 50.7966C28.9179 39.1258 27.8465 26.573 21.9619 15.584C21.1611 14.1309 20.2792 12.7271 19.3526 11.3411C19.2635 11.2074 19.1745 11.0738 19.0827 10.9362C18.8232 10.5487 18.5619 10.1625 18.2991 9.77695C18.2196 9.66005 18.14 9.54316 18.0581 9.42272C17.8712 9.15319 17.6764 8.88852 17.4798 8.62509C17.4111 8.62509 17.3424 8.62509 17.2717 8.62509ZM17.2717 76.7181C16.9377 77.0647 16.6153 77.4147 16.2962 77.773C16.1195 77.9688 15.9427 78.1646 15.7606 78.3664C15.109 79.1436 14.5291 79.9713 13.9422 80.7921C16.2083 80.7921 18.4745 80.7921 20.8092 80.7921C19.6366 79.334 19.6366 79.334 18.4552 77.8821C18.3633 77.7688 18.2715 77.6556 18.1768 77.5388C17.9494 77.2617 17.7153 76.9894 17.4798 76.7181C17.4111 76.7181 17.3424 76.7181 17.2717 76.7181Z" fill="#194569"/>
<path d="M54.5592 0.0282018C54.708 0.0209497 54.8569 0.0136975 55.0103 0.00622559C56.3981 0.214538 57.3332 0.848 58.1535 1.88823C58.2507 2.01864 58.3478 2.14905 58.4479 2.28342C58.5544 2.42159 58.6609 2.55975 58.7707 2.70211C59.092 3.12181 59.4077 3.54479 59.7224 3.96877C59.811 4.08565 59.8995 4.20253 59.9907 4.32295C65.7755 11.9709 69.8531 20.8146 70.9594 30.1584C70.9788 30.312 70.9981 30.4657 71.018 30.6239C71.2054 32.2806 71.2182 33.9385 71.2196 35.6025C71.2197 35.7559 71.2198 35.9093 71.22 36.0674C71.203 47.8133 66.8289 60.0881 59.7485 69.7982C59.2031 70.539 59.2031 70.539 59.1819 71.4003C59.6059 71.9966 60.0578 72.5623 60.5418 73.1167C60.7497 73.3589 60.9575 73.6012 61.1653 73.8434C61.2715 73.9664 61.3777 74.0894 61.4871 74.2162C61.9789 74.7878 62.4632 75.3649 62.9479 75.9418C63.1386 76.1681 63.3293 76.3945 63.5201 76.6208C64.6646 77.9787 65.8092 79.3367 66.9537 80.6947C67.0482 80.8069 67.1427 80.919 67.2401 81.0345C67.4299 81.2597 67.6196 81.485 67.8093 81.7102C68.3007 82.2937 68.793 82.8765 69.2866 83.4584C69.4389 83.6383 69.4389 83.6383 69.5942 83.8218C69.7861 84.0483 69.9782 84.2747 70.1706 84.5008C71.9999 86.6631 71.9999 86.6631 71.9999 86.9996C60.3946 86.9996 48.7893 86.9996 36.8323 86.9996C38.5791 84.8283 40.3595 82.684 42.1613 80.5523C42.6399 79.9859 43.1175 79.4188 43.5953 78.8517C43.786 78.6254 43.9768 78.3991 44.1675 78.1727C44.3092 78.0047 44.3092 78.0047 44.4537 77.8332C45.312 76.8148 45.312 76.8148 45.5986 76.4748C45.7881 76.25 45.9774 76.0251 46.1668 75.8001C46.6625 75.2112 47.1599 74.6235 47.6596 74.0374C47.8147 73.8549 47.8147 73.8549 47.9729 73.6687C48.17 73.437 48.3675 73.2056 48.5655 72.9746C49.0781 72.3706 49.535 71.7622 49.9421 71.0918C49.8754 70.99 49.8087 70.8881 49.74 70.7832C43.8158 61.6919 39.3216 52.0659 38.0808 41.4103C38.0611 41.2419 38.0413 41.0736 38.0209 40.9002C37.8377 39.1315 37.8309 37.3655 37.8337 35.5903C37.8339 35.4308 37.8341 35.2712 37.8343 35.1068C37.8406 32.7251 37.89 30.3814 38.2889 28.0244C38.3181 27.8418 38.3472 27.6591 38.3772 27.471C39.8977 18.2315 44.5798 10.1197 50.5534 2.73204C50.6614 2.59712 50.7695 2.46221 50.8808 2.32321C51.8712 1.11853 52.8301 0.0824086 54.5592 0.0282018ZM54.5201 8.8187C53.0327 10.5773 51.8956 12.4708 50.7745 14.4446C50.6993 14.576 50.6241 14.7074 50.5467 14.8428C47.537 20.139 45.3344 26.0702 45.156 32.0984C47.7494 32.7078 50.6099 32.4306 53.0635 31.5164C54.1469 31.1797 55.1755 31.1937 56.2499 31.5528C57.0347 32.0462 57.5257 32.4386 57.7602 33.3207C57.9332 34.4515 57.8574 35.1903 57.2253 36.1723C56.3789 36.9303 55.4968 37.2288 54.4031 37.5546C54.1735 37.6277 54.1735 37.6277 53.9393 37.7023C51.7064 38.3849 49.5241 38.558 47.1849 38.5245C46.948 38.5228 46.7112 38.521 46.4671 38.5192C45.8913 38.5147 45.3156 38.5084 44.7398 38.5003C45.5182 48.1936 49.3579 57.2885 54.5201 65.6599C61.3669 58.4484 64.5518 45.5269 64.5606 36.1238C64.5607 35.9879 64.5609 35.8521 64.561 35.7121C64.5499 28.8685 62.7214 22.3271 59.5144 16.1906C59.4331 16.0351 59.3518 15.8795 59.2681 15.7192C57.4463 11.798 57.4463 11.798 54.5201 8.8187ZM54.104 76.7178C53.7962 77.0175 53.7962 77.0175 53.4862 77.4119C53.3673 77.5572 53.2485 77.7025 53.1261 77.8522C52.9406 78.0829 52.9406 78.0829 52.7514 78.3182C52.6277 78.469 52.504 78.6198 52.3766 78.7752C51.8365 79.4402 51.3852 80.041 50.9826 80.7917C53.18 80.7917 55.3775 80.7917 57.6415 80.7917C57.3393 80.2281 57.1068 79.8414 56.6986 79.3663C56.5985 79.2489 56.4985 79.1315 56.3954 79.0105C56.2916 78.8901 56.1878 78.7697 56.0808 78.6456C55.8747 78.405 55.6688 78.1643 55.4631 77.9234C55.3265 77.7647 55.3265 77.7647 55.1871 77.6028C54.9509 77.3173 54.7347 77.0178 54.5201 76.7178C54.3828 76.7178 54.2455 76.7178 54.104 76.7178Z" fill="#194569"/>
<path d="M20.0549 20.0952C21.0179 20.7318 21.4892 21.4071 21.7586 22.4747C21.9366 23.6015 21.8438 24.5094 21.2254 25.5029C20.3373 26.4833 19.5088 27.0416 18.143 27.2246C16.7828 27.3152 15.8514 27.0231 14.8135 26.2061C13.8304 25.1062 13.4883 24.2248 13.526 22.7869C13.8009 21.4686 14.5414 20.6783 15.7239 19.9254C17.118 19.2589 18.7007 19.3765 20.0549 20.0952Z" fill="#194569"/>
<path d="M56.8743 20.0103C57.8306 20.7774 58.6031 21.4944 58.739 22.7164C58.789 24.1158 58.6449 25.0182 57.6417 26.0848C56.7926 26.8764 55.8991 27.2376 54.6861 27.2556C53.2901 27.1649 52.3125 26.7676 51.3339 25.806C50.5486 24.6943 50.3943 23.7152 50.5665 22.3989C50.9416 21.2547 51.5907 20.5337 52.6475 19.8769C54.0645 19.318 55.5087 19.3617 56.8743 20.0103Z" fill="#194569"/>
</svg>
