<svg width="64" height="87" viewBox="0 0 64 87" fill="none" xmlns="http://www.w3.org/2000/svg">
<path d="M17.2934 0.40824C17.9657 0.839535 18.4352 1.39448 18.9017 2.05343C18.9872 2.17117 19.0727 2.2889 19.1608 2.41021C20.9634 4.92856 22.5413 7.59251 24.0061 10.3388C24.2063 10.7125 24.4103 11.0834 24.6156 11.454C28.5667 18.8237 30.4234 27.296 30.3931 35.6998C30.3925 35.9971 30.3925 35.9971 30.3919 36.3003C30.3827 39.146 30.3033 41.9092 29.7803 44.7086C29.7475 44.9042 29.7147 45.0998 29.6809 45.3013C28.1253 54.5437 24.3071 63.1676 19.6069 71.0922C20.1282 71.9344 20.6867 72.7316 21.2832 73.5172C21.4646 73.7577 21.646 73.9981 21.8273 74.2386C21.9194 74.3604 22.0114 74.4822 22.1063 74.6077C22.5388 75.1805 22.9687 75.7554 23.3988 76.3301C23.5684 76.5565 23.7379 76.7828 23.9075 77.0091C24.9249 78.3671 25.9422 79.7251 26.9595 81.0831C27.0436 81.1952 27.1276 81.3074 27.2142 81.423C27.3827 81.648 27.5512 81.873 27.7197 82.0982C28.1585 82.6844 28.5983 83.2696 29.0397 83.8536C29.1308 83.9744 29.2219 84.0952 29.3158 84.2196C29.4886 84.4488 29.6617 84.6776 29.8353 84.9062C30.3484 85.5874 30.7984 86.2736 31.2601 87C20.9443 87 10.6284 87 0 87C0.515844 86.0532 0.904146 85.3912 1.56069 84.5993C2.32534 83.6618 3.04778 82.6976 3.75723 81.7136C4.56328 80.5975 5.3853 79.4988 6.23121 78.4156C7.17655 77.2041 8.09903 75.9794 8.99901 74.7304C9.28401 74.3418 9.57647 73.96 9.86922 73.5778C10.0786 73.299 10.2879 73.0201 10.4971 72.7412C10.5989 72.611 10.7008 72.4809 10.8057 72.3468C10.9434 72.1609 10.9434 72.1609 11.0838 71.9713C11.2085 71.8079 11.2085 71.8079 11.3358 71.6413C11.5129 71.2722 11.5129 71.2722 11.3413 70.8207C11.0943 70.3081 10.8344 69.8125 10.5542 69.319C10.4471 69.1291 10.34 68.9391 10.2296 68.7435C10.1157 68.5423 10.0018 68.3411 9.88439 68.1338C4.58296 58.6608 0.981128 48.2294 0.739884 37.1427C0.734639 36.9376 0.729393 36.7326 0.723988 36.5213C0.716233 35.8868 0.725515 35.2551 0.739884 34.6207C0.742209 34.476 0.744534 34.3313 0.746929 34.1821C0.976227 21.7112 5.91799 10.0255 13.6879 0.671198C14.8104 -0.150193 16.0758 -0.193123 17.2934 0.40824ZM15.3526 8.62509C11.2003 14.6205 6.69078 24.0595 7.0289 31.7108C9.46182 32.3307 11.7699 32.243 14.0925 31.1773C14.9535 30.8183 15.7613 30.8813 16.6474 31.1288C17.4715 31.6159 17.8146 32.1078 18.1272 33.0202C18.3632 34.0033 18.3364 34.8524 17.9422 35.7847C16.9104 37.4239 14.8329 37.7556 13.1055 38.1945C11.6884 38.4958 10.3313 38.524 8.89017 38.5128C8.5681 38.5115 8.5681 38.5115 8.23952 38.5101C7.71266 38.5079 7.18581 38.5047 6.65896 38.5007C7.00972 47.2314 10.2014 55.4592 13.9769 63.1262C14.0695 63.3147 14.1621 63.5031 14.2575 63.6973C14.3444 63.8707 14.4314 64.0441 14.521 64.2227C14.5969 64.3745 14.6729 64.5263 14.7511 64.6827C14.9785 65.0711 15.2174 65.3544 15.5376 65.6603C18.0017 61.0056 20.2323 56.3689 21.8266 51.3045C21.8804 51.1369 21.9342 50.9693 21.9897 50.7966C25.7048 39.1258 24.7524 26.573 19.5217 15.584C18.8099 14.1309 18.0259 12.7271 17.2023 11.3411C17.1231 11.2074 17.044 11.0738 16.9624 10.9362C16.7318 10.5487 16.4995 10.1625 16.2659 9.77695C16.1952 9.66005 16.1245 9.54316 16.0516 9.42272C15.8855 9.15319 15.7123 8.88852 15.5376 8.62509C15.4765 8.62509 15.4155 8.62509 15.3526 8.62509ZM15.3526 76.7181C15.0557 77.0647 14.7692 77.4147 14.4855 77.773C14.3284 77.9688 14.1713 78.1646 14.0094 78.3664C13.4302 79.1436 12.9148 79.9713 12.3931 80.7921C14.4074 80.7921 16.4217 80.7921 18.4971 80.7921C17.4548 79.334 17.4548 79.334 16.4046 77.8821C16.323 77.7688 16.2413 77.6556 16.1572 77.5388C15.9551 77.2617 15.7469 76.9894 15.5376 76.7181C15.4765 76.7181 15.4155 76.7181 15.3526 76.7181Z" fill="white"/>
<path d="M48.497 0.0282018C48.6293 0.0209497 48.7616 0.0136975 48.898 0.00622559C50.1316 0.214538 50.9628 0.848 51.692 1.88823C51.7783 2.01864 51.8647 2.14905 51.9536 2.28342C52.0483 2.42159 52.143 2.55975 52.2406 2.70211C52.5262 3.12181 52.8068 3.54479 53.0866 3.96877C53.1653 4.08565 53.2439 4.20253 53.325 4.32295C58.467 11.9709 62.0916 20.8146 63.075 30.1584C63.0922 30.312 63.1093 30.4657 63.127 30.6239C63.2936 32.2806 63.305 33.9385 63.3062 35.6025C63.3063 35.7559 63.3065 35.9093 63.3066 36.0674C63.2915 47.8133 59.4034 60.0881 53.1097 69.7982C52.6249 70.539 52.6249 70.539 52.6061 71.4003C52.983 71.9966 53.3846 72.5623 53.8149 73.1167C53.9996 73.3589 54.1844 73.6012 54.3691 73.8434C54.4635 73.9664 54.5579 74.0894 54.6551 74.2162C55.0923 74.7878 55.5228 75.3649 55.9536 75.9418C56.1231 76.1681 56.2927 76.3945 56.4623 76.6208C57.4796 77.9787 58.497 79.3367 59.5143 80.6947C59.5983 80.8069 59.6824 80.919 59.7689 81.0345C59.9376 81.2597 60.1063 81.485 60.2749 81.7102C60.7117 82.2937 61.1493 82.8765 61.588 83.4584C61.7234 83.6383 61.7234 83.6383 61.8615 83.8218C62.032 84.0483 62.2028 84.2747 62.3738 84.5008C63.9999 86.6631 63.9999 86.6631 63.9999 86.9996C53.684 86.9996 43.3682 86.9996 32.7397 86.9996C34.2925 84.8283 35.875 82.684 37.4766 80.5523C37.9021 79.9859 38.3266 79.4188 38.7513 78.8517C38.9209 78.6254 39.0904 78.3991 39.26 78.1727C39.3859 78.0047 39.3859 78.0047 39.5143 77.8332C40.2773 76.8148 40.2773 76.8148 40.532 76.4748C40.7004 76.25 40.8688 76.0251 41.0371 75.8001C41.4778 75.2112 41.9198 74.6235 42.364 74.0374C42.5019 73.8549 42.5019 73.8549 42.6426 73.6687C42.8177 73.437 42.9933 73.2056 43.1693 72.9746C43.6249 72.3706 44.0311 71.7622 44.3929 71.0918C44.3336 70.99 44.2744 70.8881 44.2133 70.7832C38.9473 61.6919 34.9525 52.0659 33.8496 41.4103C33.832 41.2419 33.8144 41.0736 33.7963 40.9002C33.6334 39.1315 33.6274 37.3655 33.6299 35.5903C33.6301 35.4308 33.6303 35.2712 33.6304 35.1068C33.636 32.7251 33.6799 30.3814 34.0345 28.0244C34.0604 27.8418 34.0863 27.6591 34.113 27.471C35.4646 18.2315 39.6264 10.1197 44.9363 2.73204C45.0323 2.59712 45.1284 2.46221 45.2273 2.32321C46.1076 1.11853 46.96 0.0824086 48.497 0.0282018ZM48.4623 8.8187C47.1401 10.5773 46.1293 12.4708 45.1328 14.4446C45.066 14.576 44.9992 14.7074 44.9303 14.8428C42.255 20.139 40.2971 26.0702 40.1386 32.0984C42.4438 32.7078 44.9865 32.4306 47.1675 31.5164C48.1305 31.1797 49.0448 31.1937 49.9999 31.5528C50.6975 32.0462 51.1339 32.4386 51.3423 33.3207C51.4961 34.4515 51.4287 35.1903 50.8669 36.1723C50.1146 36.9303 49.3304 37.2288 48.3582 37.5546C48.1542 37.6277 48.1542 37.6277 47.946 37.7023C45.9612 38.3849 44.0214 38.558 41.9421 38.5245C41.7315 38.5228 41.521 38.521 41.3041 38.5192C40.7922 38.5147 40.2805 38.5084 39.7686 38.5003C40.4605 48.1936 43.8736 57.2885 48.4623 65.6599C54.5483 58.4484 57.3793 45.5269 57.3871 36.1238C57.3873 35.9879 57.3874 35.8521 57.3875 35.7121C57.3776 28.8685 55.7523 22.3271 52.9016 16.1906C52.8293 16.0351 52.7571 15.8795 52.6827 15.7192C51.0633 11.798 51.0633 11.798 48.4623 8.8187ZM48.0923 76.7178C47.8188 77.0175 47.8188 77.0175 47.5432 77.4119C47.4376 77.5572 47.332 77.7025 47.2231 77.8522C47.0582 78.0829 47.0582 78.0829 46.89 78.3182C46.7801 78.469 46.6702 78.6198 46.5569 78.7752C46.0768 79.4402 45.6757 80.041 45.3178 80.7917C47.2711 80.7917 49.2244 80.7917 51.2369 80.7917C50.9682 80.2281 50.7615 79.8414 50.3987 79.3663C50.3098 79.2489 50.2208 79.1315 50.1292 79.0105C50.0369 78.8901 49.9446 78.7697 49.8496 78.6456C49.6663 78.405 49.4833 78.1643 49.3004 77.9234C49.179 77.7647 49.179 77.7647 49.0551 77.6028C48.8452 77.3173 48.653 77.0178 48.4623 76.7178C48.3402 76.7178 48.2181 76.7178 48.0923 76.7178Z" fill="white"/>
<path d="M17.8264 20.0952C18.6824 20.7318 19.1014 21.4071 19.3409 22.4747C19.4991 23.6015 19.4166 24.5094 18.8669 25.5029C18.0775 26.4833 17.3411 27.0416 16.127 27.2246C14.9179 27.3152 14.09 27.0231 13.1675 26.2061C12.2935 25.1062 11.9895 24.2248 12.023 22.7869C12.2674 21.4686 12.9255 20.6783 13.9767 19.9254C15.2159 19.2589 16.6227 19.3765 17.8264 20.0952Z" fill="white"/>
<path d="M50.5549 20.0103C51.4049 20.7774 52.0915 21.4944 52.2124 22.7164C52.2568 24.1158 52.1287 25.0182 51.2369 26.0849C50.4822 26.8764 49.688 27.2376 48.6098 27.2557C47.3689 27.1649 46.4999 26.7676 45.63 25.806C44.932 24.6944 44.7949 23.7152 44.9479 22.3989C45.2813 21.2547 45.8583 20.5337 46.7976 19.8769C48.0572 19.318 49.3409 19.3617 50.5549 20.0103Z" fill="white"/>
</svg>
